<?xml version="1.0" encoding="utf-8" standalone="no"?>
<!DOCTYPE svg PUBLIC "-//W3C//DTD SVG 1.1//EN"
  "http://www.w3.org/Graphics/SVG/1.1/DTD/svg11.dtd">
<svg xmlns:xlink="http://www.w3.org/1999/xlink" width="504pt" height="360pt" viewBox="0 0 504 360" xmlns="http://www.w3.org/2000/svg" version="1.1">
 <metadata>
  <rdf:RDF xmlns:dc="http://purl.org/dc/elements/1.1/" xmlns:cc="http://creativecommons.org/ns#" xmlns:rdf="http://www.w3.org/1999/02/22-rdf-syntax-ns#">
   <cc:Work>
    <dc:type rdf:resource="http://purl.org/dc/dcmitype/StillImage"/>
    <dc:date>2026-01-06T02:02:38.634138</dc:date>
    <dc:format>image/svg+xml</dc:format>
    <dc:creator>
     <cc:Agent>
      <dc:title>Matplotlib v3.10.8, https://matplotlib.org/</dc:title>
     </cc:Agent>
    </dc:creator>
   </cc:Work>
  </rdf:RDF>
 </metadata>
 <defs>
  <style type="text/css">*{stroke-linejoin: round; stroke-linecap: butt}</style>
 </defs>
 <g id="figure_1">
  <g id="patch_1">
   <path d="M 0 360 
L 504 360 
L 504 0 
L 0 0 
z
" style="fill: #ffffff"/>
  </g>
  <g id="axes_1">
   <g id="patch_2">
    <path d="M 63 320.4 
L 453.6 320.4 
L 453.6 43.2 
L 63 43.2 
z
" style="fill: #ffffff"/>
   </g>
   <g id="matplotlib.axis_1">
    <g id="xtick_1">
     <g id="line2d_1">
      <path d="M 80.683513 320.4 
L 80.683513 43.2 
" clip-path="url(#p851a560dd5)" style="fill: none; stroke: #b0b0b0; stroke-width: 0.8; stroke-linecap: square"/>
     </g>
     <g id="line2d_2">
      <defs>
       <path id="me3e42da286" d="M 0 0 
L 0 3.5 
" style="stroke: #000000; stroke-width: 0.8"/>
      </defs>
      <g>
       <use xlink:href="#me3e42da286" x="80.683513" y="320.4" style="stroke: #000000; stroke-width: 0.8"/>
      </g>
     </g>
     <g id="text_1">
      <!-- 0 -->
      <g transform="translate(77.502263 334.998438) scale(0.1 -0.1)">
       <defs>
        <path id="DejaVuSans-30" d="M 2034 4250 
Q 1547 4250 1301 3770 
Q 1056 3291 1056 2328 
Q 1056 1369 1301 889 
Q 1547 409 2034 409 
Q 2525 409 2770 889 
Q 3016 1369 3016 2328 
Q 3016 3291 2770 3770 
Q 2525 4250 2034 4250 
z
M 2034 4750 
Q 2819 4750 3233 4129 
Q 3647 3509 3647 2328 
Q 3647 1150 3233 529 
Q 2819 -91 2034 -91 
Q 1250 -91 836 529 
Q 422 1150 422 2328 
Q 422 3509 836 4129 
Q 1250 4750 2034 4750 
z
" transform="scale(0.015625)"/>
       </defs>
       <use xlink:href="#DejaVuSans-30"/>
      </g>
     </g>
    </g>
    <g id="xtick_2">
     <g id="line2d_3">
      <path d="M 151.715901 320.4 
L 151.715901 43.2 
" clip-path="url(#p851a560dd5)" style="fill: none; stroke: #b0b0b0; stroke-width: 0.8; stroke-linecap: square"/>
     </g>
     <g id="line2d_4">
      <g>
       <use xlink:href="#me3e42da286" x="151.715901" y="320.4" style="stroke: #000000; stroke-width: 0.8"/>
      </g>
     </g>
     <g id="text_2">
      <!-- 10000 -->
      <g transform="translate(135.809651 334.998438) scale(0.1 -0.1)">
       <defs>
        <path id="DejaVuSans-31" d="M 794 531 
L 1825 531 
L 1825 4091 
L 703 3866 
L 703 4441 
L 1819 4666 
L 2450 4666 
L 2450 531 
L 3481 531 
L 3481 0 
L 794 0 
L 794 531 
z
" transform="scale(0.015625)"/>
       </defs>
       <use xlink:href="#DejaVuSans-31"/>
       <use xlink:href="#DejaVuSans-30" transform="translate(63.623047 0)"/>
       <use xlink:href="#DejaVuSans-30" transform="translate(127.246094 0)"/>
       <use xlink:href="#DejaVuSans-30" transform="translate(190.869141 0)"/>
       <use xlink:href="#DejaVuSans-30" transform="translate(254.492188 0)"/>
      </g>
     </g>
    </g>
    <g id="xtick_3">
     <g id="line2d_5">
      <path d="M 222.74829 320.4 
L 222.74829 43.2 
" clip-path="url(#p851a560dd5)" style="fill: none; stroke: #b0b0b0; stroke-width: 0.8; stroke-linecap: square"/>
     </g>
     <g id="line2d_6">
      <g>
       <use xlink:href="#me3e42da286" x="222.74829" y="320.4" style="stroke: #000000; stroke-width: 0.8"/>
      </g>
     </g>
     <g id="text_3">
      <!-- 20000 -->
      <g transform="translate(206.84204 334.998438) scale(0.1 -0.1)">
       <defs>
        <path id="DejaVuSans-32" d="M 1228 531 
L 3431 531 
L 3431 0 
L 469 0 
L 469 531 
Q 828 903 1448 1529 
Q 2069 2156 2228 2338 
Q 2531 2678 2651 2914 
Q 2772 3150 2772 3378 
Q 2772 3750 2511 3984 
Q 2250 4219 1831 4219 
Q 1534 4219 1204 4116 
Q 875 4013 500 3803 
L 500 4441 
Q 881 4594 1212 4672 
Q 1544 4750 1819 4750 
Q 2544 4750 2975 4387 
Q 3406 4025 3406 3419 
Q 3406 3131 3298 2873 
Q 3191 2616 2906 2266 
Q 2828 2175 2409 1742 
Q 1991 1309 1228 531 
z
" transform="scale(0.015625)"/>
       </defs>
       <use xlink:href="#DejaVuSans-32"/>
       <use xlink:href="#DejaVuSans-30" transform="translate(63.623047 0)"/>
       <use xlink:href="#DejaVuSans-30" transform="translate(127.246094 0)"/>
       <use xlink:href="#DejaVuSans-30" transform="translate(190.869141 0)"/>
       <use xlink:href="#DejaVuSans-30" transform="translate(254.492188 0)"/>
      </g>
     </g>
    </g>
    <g id="xtick_4">
     <g id="line2d_7">
      <path d="M 293.780678 320.4 
L 293.780678 43.2 
" clip-path="url(#p851a560dd5)" style="fill: none; stroke: #b0b0b0; stroke-width: 0.8; stroke-linecap: square"/>
     </g>
     <g id="line2d_8">
      <g>
       <use xlink:href="#me3e42da286" x="293.780678" y="320.4" style="stroke: #000000; stroke-width: 0.8"/>
      </g>
     </g>
     <g id="text_4">
      <!-- 30000 -->
      <g transform="translate(277.874428 334.998438) scale(0.1 -0.1)">
       <defs>
        <path id="DejaVuSans-33" d="M 2597 2516 
Q 3050 2419 3304 2112 
Q 3559 1806 3559 1356 
Q 3559 666 3084 287 
Q 2609 -91 1734 -91 
Q 1441 -91 1130 -33 
Q 819 25 488 141 
L 488 750 
Q 750 597 1062 519 
Q 1375 441 1716 441 
Q 2309 441 2620 675 
Q 2931 909 2931 1356 
Q 2931 1769 2642 2001 
Q 2353 2234 1838 2234 
L 1294 2234 
L 1294 2753 
L 1863 2753 
Q 2328 2753 2575 2939 
Q 2822 3125 2822 3475 
Q 2822 3834 2567 4026 
Q 2313 4219 1838 4219 
Q 1578 4219 1281 4162 
Q 984 4106 628 3988 
L 628 4550 
Q 988 4650 1302 4700 
Q 1616 4750 1894 4750 
Q 2613 4750 3031 4423 
Q 3450 4097 3450 3541 
Q 3450 3153 3228 2886 
Q 3006 2619 2597 2516 
z
" transform="scale(0.015625)"/>
       </defs>
       <use xlink:href="#DejaVuSans-33"/>
       <use xlink:href="#DejaVuSans-30" transform="translate(63.623047 0)"/>
       <use xlink:href="#DejaVuSans-30" transform="translate(127.246094 0)"/>
       <use xlink:href="#DejaVuSans-30" transform="translate(190.869141 0)"/>
       <use xlink:href="#DejaVuSans-30" transform="translate(254.492188 0)"/>
      </g>
     </g>
    </g>
    <g id="xtick_5">
     <g id="line2d_9">
      <path d="M 364.813066 320.4 
L 364.813066 43.2 
" clip-path="url(#p851a560dd5)" style="fill: none; stroke: #b0b0b0; stroke-width: 0.8; stroke-linecap: square"/>
     </g>
     <g id="line2d_10">
      <g>
       <use xlink:href="#me3e42da286" x="364.813066" y="320.4" style="stroke: #000000; stroke-width: 0.8"/>
      </g>
     </g>
     <g id="text_5">
      <!-- 40000 -->
      <g transform="translate(348.906816 334.998438) scale(0.1 -0.1)">
       <defs>
        <path id="DejaVuSans-34" d="M 2419 4116 
L 825 1625 
L 2419 1625 
L 2419 4116 
z
M 2253 4666 
L 3047 4666 
L 3047 1625 
L 3713 1625 
L 3713 1100 
L 3047 1100 
L 3047 0 
L 2419 0 
L 2419 1100 
L 313 1100 
L 313 1709 
L 2253 4666 
z
" transform="scale(0.015625)"/>
       </defs>
       <use xlink:href="#DejaVuSans-34"/>
       <use xlink:href="#DejaVuSans-30" transform="translate(63.623047 0)"/>
       <use xlink:href="#DejaVuSans-30" transform="translate(127.246094 0)"/>
       <use xlink:href="#DejaVuSans-30" transform="translate(190.869141 0)"/>
       <use xlink:href="#DejaVuSans-30" transform="translate(254.492188 0)"/>
      </g>
     </g>
    </g>
    <g id="xtick_6">
     <g id="line2d_11">
      <path d="M 435.845455 320.4 
L 435.845455 43.2 
" clip-path="url(#p851a560dd5)" style="fill: none; stroke: #b0b0b0; stroke-width: 0.8; stroke-linecap: square"/>
     </g>
     <g id="line2d_12">
      <g>
       <use xlink:href="#me3e42da286" x="435.845455" y="320.4" style="stroke: #000000; stroke-width: 0.8"/>
      </g>
     </g>
     <g id="text_6">
      <!-- 50000 -->
      <g transform="translate(419.939205 334.998438) scale(0.1 -0.1)">
       <defs>
        <path id="DejaVuSans-35" d="M 691 4666 
L 3169 4666 
L 3169 4134 
L 1269 4134 
L 1269 2991 
Q 1406 3038 1543 3061 
Q 1681 3084 1819 3084 
Q 2600 3084 3056 2656 
Q 3513 2228 3513 1497 
Q 3513 744 3044 326 
Q 2575 -91 1722 -91 
Q 1428 -91 1123 -41 
Q 819 9 494 109 
L 494 744 
Q 775 591 1075 516 
Q 1375 441 1709 441 
Q 2250 441 2565 725 
Q 2881 1009 2881 1497 
Q 2881 1984 2565 2268 
Q 2250 2553 1709 2553 
Q 1456 2553 1204 2497 
Q 953 2441 691 2322 
L 691 4666 
z
" transform="scale(0.015625)"/>
       </defs>
       <use xlink:href="#DejaVuSans-35"/>
       <use xlink:href="#DejaVuSans-30" transform="translate(63.623047 0)"/>
       <use xlink:href="#DejaVuSans-30" transform="translate(127.246094 0)"/>
       <use xlink:href="#DejaVuSans-30" transform="translate(190.869141 0)"/>
       <use xlink:href="#DejaVuSans-30" transform="translate(254.492188 0)"/>
      </g>
     </g>
    </g>
    <g id="text_7">
     <!-- Liczba punktów n -->
     <g transform="translate(214.650781 349.076563) scale(0.1 -0.1)">
      <defs>
       <path id="DejaVuSans-4c" d="M 628 4666 
L 1259 4666 
L 1259 531 
L 3531 531 
L 3531 0 
L 628 0 
L 628 4666 
z
" transform="scale(0.015625)"/>
       <path id="DejaVuSans-69" d="M 603 3500 
L 1178 3500 
L 1178 0 
L 603 0 
L 603 3500 
z
M 603 4863 
L 1178 4863 
L 1178 4134 
L 603 4134 
L 603 4863 
z
" transform="scale(0.015625)"/>
       <path id="DejaVuSans-63" d="M 3122 3366 
L 3122 2828 
Q 2878 2963 2633 3030 
Q 2388 3097 2138 3097 
Q 1578 3097 1268 2742 
Q 959 2388 959 1747 
Q 959 1106 1268 751 
Q 1578 397 2138 397 
Q 2388 397 2633 464 
Q 2878 531 3122 666 
L 3122 134 
Q 2881 22 2623 -34 
Q 2366 -91 2075 -91 
Q 1284 -91 818 406 
Q 353 903 353 1747 
Q 353 2603 823 3093 
Q 1294 3584 2113 3584 
Q 2378 3584 2631 3529 
Q 2884 3475 3122 3366 
z
" transform="scale(0.015625)"/>
       <path id="DejaVuSans-7a" d="M 353 3500 
L 3084 3500 
L 3084 2975 
L 922 459 
L 3084 459 
L 3084 0 
L 275 0 
L 275 525 
L 2438 3041 
L 353 3041 
L 353 3500 
z
" transform="scale(0.015625)"/>
       <path id="DejaVuSans-62" d="M 3116 1747 
Q 3116 2381 2855 2742 
Q 2594 3103 2138 3103 
Q 1681 3103 1420 2742 
Q 1159 2381 1159 1747 
Q 1159 1113 1420 752 
Q 1681 391 2138 391 
Q 2594 391 2855 752 
Q 3116 1113 3116 1747 
z
M 1159 2969 
Q 1341 3281 1617 3432 
Q 1894 3584 2278 3584 
Q 2916 3584 3314 3078 
Q 3713 2572 3713 1747 
Q 3713 922 3314 415 
Q 2916 -91 2278 -91 
Q 1894 -91 1617 61 
Q 1341 213 1159 525 
L 1159 0 
L 581 0 
L 581 4863 
L 1159 4863 
L 1159 2969 
z
" transform="scale(0.015625)"/>
       <path id="DejaVuSans-61" d="M 2194 1759 
Q 1497 1759 1228 1600 
Q 959 1441 959 1056 
Q 959 750 1161 570 
Q 1363 391 1709 391 
Q 2188 391 2477 730 
Q 2766 1069 2766 1631 
L 2766 1759 
L 2194 1759 
z
M 3341 1997 
L 3341 0 
L 2766 0 
L 2766 531 
Q 2569 213 2275 61 
Q 1981 -91 1556 -91 
Q 1019 -91 701 211 
Q 384 513 384 1019 
Q 384 1609 779 1909 
Q 1175 2209 1959 2209 
L 2766 2209 
L 2766 2266 
Q 2766 2663 2505 2880 
Q 2244 3097 1772 3097 
Q 1472 3097 1187 3025 
Q 903 2953 641 2809 
L 641 3341 
Q 956 3463 1253 3523 
Q 1550 3584 1831 3584 
Q 2591 3584 2966 3190 
Q 3341 2797 3341 1997 
z
" transform="scale(0.015625)"/>
       <path id="DejaVuSans-20" transform="scale(0.015625)"/>
       <path id="DejaVuSans-70" d="M 1159 525 
L 1159 -1331 
L 581 -1331 
L 581 3500 
L 1159 3500 
L 1159 2969 
Q 1341 3281 1617 3432 
Q 1894 3584 2278 3584 
Q 2916 3584 3314 3078 
Q 3713 2572 3713 1747 
Q 3713 922 3314 415 
Q 2916 -91 2278 -91 
Q 1894 -91 1617 61 
Q 1341 213 1159 525 
z
M 3116 1747 
Q 3116 2381 2855 2742 
Q 2594 3103 2138 3103 
Q 1681 3103 1420 2742 
Q 1159 2381 1159 1747 
Q 1159 1113 1420 752 
Q 1681 391 2138 391 
Q 2594 391 2855 752 
Q 3116 1113 3116 1747 
z
" transform="scale(0.015625)"/>
       <path id="DejaVuSans-75" d="M 544 1381 
L 544 3500 
L 1119 3500 
L 1119 1403 
Q 1119 906 1312 657 
Q 1506 409 1894 409 
Q 2359 409 2629 706 
Q 2900 1003 2900 1516 
L 2900 3500 
L 3475 3500 
L 3475 0 
L 2900 0 
L 2900 538 
Q 2691 219 2414 64 
Q 2138 -91 1772 -91 
Q 1169 -91 856 284 
Q 544 659 544 1381 
z
M 1991 3584 
L 1991 3584 
z
" transform="scale(0.015625)"/>
       <path id="DejaVuSans-6e" d="M 3513 2113 
L 3513 0 
L 2938 0 
L 2938 2094 
Q 2938 2591 2744 2837 
Q 2550 3084 2163 3084 
Q 1697 3084 1428 2787 
Q 1159 2491 1159 1978 
L 1159 0 
L 581 0 
L 581 3500 
L 1159 3500 
L 1159 2956 
Q 1366 3272 1645 3428 
Q 1925 3584 2291 3584 
Q 2894 3584 3203 3211 
Q 3513 2838 3513 2113 
z
" transform="scale(0.015625)"/>
       <path id="DejaVuSans-6b" d="M 581 4863 
L 1159 4863 
L 1159 1991 
L 2875 3500 
L 3609 3500 
L 1753 1863 
L 3688 0 
L 2938 0 
L 1159 1709 
L 1159 0 
L 581 0 
L 581 4863 
z
" transform="scale(0.015625)"/>
       <path id="DejaVuSans-74" d="M 1172 4494 
L 1172 3500 
L 2356 3500 
L 2356 3053 
L 1172 3053 
L 1172 1153 
Q 1172 725 1289 603 
Q 1406 481 1766 481 
L 2356 481 
L 2356 0 
L 1766 0 
Q 1100 0 847 248 
Q 594 497 594 1153 
L 594 3053 
L 172 3053 
L 172 3500 
L 594 3500 
L 594 4494 
L 1172 4494 
z
" transform="scale(0.015625)"/>
       <path id="DejaVuSans-f3" d="M 1959 3097 
Q 1497 3097 1228 2736 
Q 959 2375 959 1747 
Q 959 1119 1226 758 
Q 1494 397 1959 397 
Q 2419 397 2687 759 
Q 2956 1122 2956 1747 
Q 2956 2369 2687 2733 
Q 2419 3097 1959 3097 
z
M 1959 3584 
Q 2709 3584 3137 3096 
Q 3566 2609 3566 1747 
Q 3566 888 3137 398 
Q 2709 -91 1959 -91 
Q 1206 -91 779 398 
Q 353 888 353 1747 
Q 353 2609 779 3096 
Q 1206 3584 1959 3584 
z
M 2394 5119 
L 3016 5119 
L 1998 3944 
L 1519 3944 
L 2394 5119 
z
" transform="scale(0.015625)"/>
       <path id="DejaVuSans-77" d="M 269 3500 
L 844 3500 
L 1563 769 
L 2278 3500 
L 2956 3500 
L 3675 769 
L 4391 3500 
L 4966 3500 
L 4050 0 
L 3372 0 
L 2619 2869 
L 1863 0 
L 1184 0 
L 269 3500 
z
" transform="scale(0.015625)"/>
      </defs>
      <use xlink:href="#DejaVuSans-4c"/>
      <use xlink:href="#DejaVuSans-69" transform="translate(55.712891 0)"/>
      <use xlink:href="#DejaVuSans-63" transform="translate(83.496094 0)"/>
      <use xlink:href="#DejaVuSans-7a" transform="translate(138.476562 0)"/>
      <use xlink:href="#DejaVuSans-62" transform="translate(190.966797 0)"/>
      <use xlink:href="#DejaVuSans-61" transform="translate(254.443359 0)"/>
      <use xlink:href="#DejaVuSans-20" transform="translate(315.722656 0)"/>
      <use xlink:href="#DejaVuSans-70" transform="translate(347.509766 0)"/>
      <use xlink:href="#DejaVuSans-75" transform="translate(410.986328 0)"/>
      <use xlink:href="#DejaVuSans-6e" transform="translate(474.365234 0)"/>
      <use xlink:href="#DejaVuSans-6b" transform="translate(537.744141 0)"/>
      <use xlink:href="#DejaVuSans-74" transform="translate(595.654297 0)"/>
      <use xlink:href="#DejaVuSans-f3" transform="translate(634.863281 0)"/>
      <use xlink:href="#DejaVuSans-77" transform="translate(696.044922 0)"/>
      <use xlink:href="#DejaVuSans-20" transform="translate(777.832031 0)"/>
      <use xlink:href="#DejaVuSans-6e" transform="translate(809.619141 0)"/>
     </g>
    </g>
   </g>
   <g id="matplotlib.axis_2">
    <g id="ytick_1">
     <g id="line2d_13">
      <path d="M 63 307.80739 
L 453.6 307.80739 
" clip-path="url(#p851a560dd5)" style="fill: none; stroke: #b0b0b0; stroke-width: 0.8; stroke-linecap: square"/>
     </g>
     <g id="line2d_14">
      <defs>
       <path id="mc51139fd72" d="M 0 0 
L -3.5 0 
" style="stroke: #000000; stroke-width: 0.8"/>
      </defs>
      <g>
       <use xlink:href="#mc51139fd72" x="63" y="307.80739" style="stroke: #000000; stroke-width: 0.8"/>
      </g>
     </g>
     <g id="text_8">
      <!-- 0 -->
      <g transform="translate(49.6375 311.606609) scale(0.1 -0.1)">
       <use xlink:href="#DejaVuSans-30"/>
      </g>
     </g>
    </g>
    <g id="ytick_2">
     <g id="line2d_15">
      <path d="M 63 248.05529 
L 453.6 248.05529 
" clip-path="url(#p851a560dd5)" style="fill: none; stroke: #b0b0b0; stroke-width: 0.8; stroke-linecap: square"/>
     </g>
     <g id="line2d_16">
      <g>
       <use xlink:href="#mc51139fd72" x="63" y="248.05529" style="stroke: #000000; stroke-width: 0.8"/>
      </g>
     </g>
     <g id="text_9">
      <!-- 200 -->
      <g transform="translate(36.9125 251.854509) scale(0.1 -0.1)">
       <use xlink:href="#DejaVuSans-32"/>
       <use xlink:href="#DejaVuSans-30" transform="translate(63.623047 0)"/>
       <use xlink:href="#DejaVuSans-30" transform="translate(127.246094 0)"/>
      </g>
     </g>
    </g>
    <g id="ytick_3">
     <g id="line2d_17">
      <path d="M 63 188.30319 
L 453.6 188.30319 
" clip-path="url(#p851a560dd5)" style="fill: none; stroke: #b0b0b0; stroke-width: 0.8; stroke-linecap: square"/>
     </g>
     <g id="line2d_18">
      <g>
       <use xlink:href="#mc51139fd72" x="63" y="188.30319" style="stroke: #000000; stroke-width: 0.8"/>
      </g>
     </g>
     <g id="text_10">
      <!-- 400 -->
      <g transform="translate(36.9125 192.102408) scale(0.1 -0.1)">
       <use xlink:href="#DejaVuSans-34"/>
       <use xlink:href="#DejaVuSans-30" transform="translate(63.623047 0)"/>
       <use xlink:href="#DejaVuSans-30" transform="translate(127.246094 0)"/>
      </g>
     </g>
    </g>
    <g id="ytick_4">
     <g id="line2d_19">
      <path d="M 63 128.551089 
L 453.6 128.551089 
" clip-path="url(#p851a560dd5)" style="fill: none; stroke: #b0b0b0; stroke-width: 0.8; stroke-linecap: square"/>
     </g>
     <g id="line2d_20">
      <g>
       <use xlink:href="#mc51139fd72" x="63" y="128.551089" style="stroke: #000000; stroke-width: 0.8"/>
      </g>
     </g>
     <g id="text_11">
      <!-- 600 -->
      <g transform="translate(36.9125 132.350308) scale(0.1 -0.1)">
       <defs>
        <path id="DejaVuSans-36" d="M 2113 2584 
Q 1688 2584 1439 2293 
Q 1191 2003 1191 1497 
Q 1191 994 1439 701 
Q 1688 409 2113 409 
Q 2538 409 2786 701 
Q 3034 994 3034 1497 
Q 3034 2003 2786 2293 
Q 2538 2584 2113 2584 
z
M 3366 4563 
L 3366 3988 
Q 3128 4100 2886 4159 
Q 2644 4219 2406 4219 
Q 1781 4219 1451 3797 
Q 1122 3375 1075 2522 
Q 1259 2794 1537 2939 
Q 1816 3084 2150 3084 
Q 2853 3084 3261 2657 
Q 3669 2231 3669 1497 
Q 3669 778 3244 343 
Q 2819 -91 2113 -91 
Q 1303 -91 875 529 
Q 447 1150 447 2328 
Q 447 3434 972 4092 
Q 1497 4750 2381 4750 
Q 2619 4750 2861 4703 
Q 3103 4656 3366 4563 
z
" transform="scale(0.015625)"/>
       </defs>
       <use xlink:href="#DejaVuSans-36"/>
       <use xlink:href="#DejaVuSans-30" transform="translate(63.623047 0)"/>
       <use xlink:href="#DejaVuSans-30" transform="translate(127.246094 0)"/>
      </g>
     </g>
    </g>
    <g id="ytick_5">
     <g id="line2d_21">
      <path d="M 63 68.798989 
L 453.6 68.798989 
" clip-path="url(#p851a560dd5)" style="fill: none; stroke: #b0b0b0; stroke-width: 0.8; stroke-linecap: square"/>
     </g>
     <g id="line2d_22">
      <g>
       <use xlink:href="#mc51139fd72" x="63" y="68.798989" style="stroke: #000000; stroke-width: 0.8"/>
      </g>
     </g>
     <g id="text_12">
      <!-- 800 -->
      <g transform="translate(36.9125 72.598208) scale(0.1 -0.1)">
       <defs>
        <path id="DejaVuSans-38" d="M 2034 2216 
Q 1584 2216 1326 1975 
Q 1069 1734 1069 1313 
Q 1069 891 1326 650 
Q 1584 409 2034 409 
Q 2484 409 2743 651 
Q 3003 894 3003 1313 
Q 3003 1734 2745 1975 
Q 2488 2216 2034 2216 
z
M 1403 2484 
Q 997 2584 770 2862 
Q 544 3141 544 3541 
Q 544 4100 942 4425 
Q 1341 4750 2034 4750 
Q 2731 4750 3128 4425 
Q 3525 4100 3525 3541 
Q 3525 3141 3298 2862 
Q 3072 2584 2669 2484 
Q 3125 2378 3379 2068 
Q 3634 1759 3634 1313 
Q 3634 634 3220 271 
Q 2806 -91 2034 -91 
Q 1263 -91 848 271 
Q 434 634 434 1313 
Q 434 1759 690 2068 
Q 947 2378 1403 2484 
z
M 1172 3481 
Q 1172 3119 1398 2916 
Q 1625 2713 2034 2713 
Q 2441 2713 2670 2916 
Q 2900 3119 2900 3481 
Q 2900 3844 2670 4047 
Q 2441 4250 2034 4250 
Q 1625 4250 1398 4047 
Q 1172 3844 1172 3481 
z
" transform="scale(0.015625)"/>
       </defs>
       <use xlink:href="#DejaVuSans-38"/>
       <use xlink:href="#DejaVuSans-30" transform="translate(63.623047 0)"/>
       <use xlink:href="#DejaVuSans-30" transform="translate(127.246094 0)"/>
      </g>
     </g>
    </g>
    <g id="text_13">
     <!-- Czas wykonania [ms] -->
     <g transform="translate(30.832812 234.815625) rotate(-90) scale(0.1 -0.1)">
      <defs>
       <path id="DejaVuSans-43" d="M 4122 4306 
L 4122 3641 
Q 3803 3938 3442 4084 
Q 3081 4231 2675 4231 
Q 1875 4231 1450 3742 
Q 1025 3253 1025 2328 
Q 1025 1406 1450 917 
Q 1875 428 2675 428 
Q 3081 428 3442 575 
Q 3803 722 4122 1019 
L 4122 359 
Q 3791 134 3420 21 
Q 3050 -91 2638 -91 
Q 1578 -91 968 557 
Q 359 1206 359 2328 
Q 359 3453 968 4101 
Q 1578 4750 2638 4750 
Q 3056 4750 3426 4639 
Q 3797 4528 4122 4306 
z
" transform="scale(0.015625)"/>
       <path id="DejaVuSans-73" d="M 2834 3397 
L 2834 2853 
Q 2591 2978 2328 3040 
Q 2066 3103 1784 3103 
Q 1356 3103 1142 2972 
Q 928 2841 928 2578 
Q 928 2378 1081 2264 
Q 1234 2150 1697 2047 
L 1894 2003 
Q 2506 1872 2764 1633 
Q 3022 1394 3022 966 
Q 3022 478 2636 193 
Q 2250 -91 1575 -91 
Q 1294 -91 989 -36 
Q 684 19 347 128 
L 347 722 
Q 666 556 975 473 
Q 1284 391 1588 391 
Q 1994 391 2212 530 
Q 2431 669 2431 922 
Q 2431 1156 2273 1281 
Q 2116 1406 1581 1522 
L 1381 1569 
Q 847 1681 609 1914 
Q 372 2147 372 2553 
Q 372 3047 722 3315 
Q 1072 3584 1716 3584 
Q 2034 3584 2315 3537 
Q 2597 3491 2834 3397 
z
" transform="scale(0.015625)"/>
       <path id="DejaVuSans-79" d="M 2059 -325 
Q 1816 -950 1584 -1140 
Q 1353 -1331 966 -1331 
L 506 -1331 
L 506 -850 
L 844 -850 
Q 1081 -850 1212 -737 
Q 1344 -625 1503 -206 
L 1606 56 
L 191 3500 
L 800 3500 
L 1894 763 
L 2988 3500 
L 3597 3500 
L 2059 -325 
z
" transform="scale(0.015625)"/>
       <path id="DejaVuSans-6f" d="M 1959 3097 
Q 1497 3097 1228 2736 
Q 959 2375 959 1747 
Q 959 1119 1226 758 
Q 1494 397 1959 397 
Q 2419 397 2687 759 
Q 2956 1122 2956 1747 
Q 2956 2369 2687 2733 
Q 2419 3097 1959 3097 
z
M 1959 3584 
Q 2709 3584 3137 3096 
Q 3566 2609 3566 1747 
Q 3566 888 3137 398 
Q 2709 -91 1959 -91 
Q 1206 -91 779 398 
Q 353 888 353 1747 
Q 353 2609 779 3096 
Q 1206 3584 1959 3584 
z
" transform="scale(0.015625)"/>
       <path id="DejaVuSans-5b" d="M 550 4863 
L 1875 4863 
L 1875 4416 
L 1125 4416 
L 1125 -397 
L 1875 -397 
L 1875 -844 
L 550 -844 
L 550 4863 
z
" transform="scale(0.015625)"/>
       <path id="DejaVuSans-6d" d="M 3328 2828 
Q 3544 3216 3844 3400 
Q 4144 3584 4550 3584 
Q 5097 3584 5394 3201 
Q 5691 2819 5691 2113 
L 5691 0 
L 5113 0 
L 5113 2094 
Q 5113 2597 4934 2840 
Q 4756 3084 4391 3084 
Q 3944 3084 3684 2787 
Q 3425 2491 3425 1978 
L 3425 0 
L 2847 0 
L 2847 2094 
Q 2847 2600 2669 2842 
Q 2491 3084 2119 3084 
Q 1678 3084 1418 2786 
Q 1159 2488 1159 1978 
L 1159 0 
L 581 0 
L 581 3500 
L 1159 3500 
L 1159 2956 
Q 1356 3278 1631 3431 
Q 1906 3584 2284 3584 
Q 2666 3584 2933 3390 
Q 3200 3197 3328 2828 
z
" transform="scale(0.015625)"/>
       <path id="DejaVuSans-5d" d="M 1947 4863 
L 1947 -844 
L 622 -844 
L 622 -397 
L 1369 -397 
L 1369 4416 
L 622 4416 
L 622 4863 
L 1947 4863 
z
" transform="scale(0.015625)"/>
      </defs>
      <use xlink:href="#DejaVuSans-43"/>
      <use xlink:href="#DejaVuSans-7a" transform="translate(69.824219 0)"/>
      <use xlink:href="#DejaVuSans-61" transform="translate(122.314453 0)"/>
      <use xlink:href="#DejaVuSans-73" transform="translate(183.59375 0)"/>
      <use xlink:href="#DejaVuSans-20" transform="translate(235.693359 0)"/>
      <use xlink:href="#DejaVuSans-77" transform="translate(267.480469 0)"/>
      <use xlink:href="#DejaVuSans-79" transform="translate(349.267578 0)"/>
      <use xlink:href="#DejaVuSans-6b" transform="translate(408.447266 0)"/>
      <use xlink:href="#DejaVuSans-6f" transform="translate(462.732422 0)"/>
      <use xlink:href="#DejaVuSans-6e" transform="translate(523.914062 0)"/>
      <use xlink:href="#DejaVuSans-61" transform="translate(587.292969 0)"/>
      <use xlink:href="#DejaVuSans-6e" transform="translate(648.572266 0)"/>
      <use xlink:href="#DejaVuSans-69" transform="translate(711.951172 0)"/>
      <use xlink:href="#DejaVuSans-61" transform="translate(739.734375 0)"/>
      <use xlink:href="#DejaVuSans-20" transform="translate(801.013672 0)"/>
      <use xlink:href="#DejaVuSans-5b" transform="translate(832.800781 0)"/>
      <use xlink:href="#DejaVuSans-6d" transform="translate(871.814453 0)"/>
      <use xlink:href="#DejaVuSans-73" transform="translate(969.226562 0)"/>
      <use xlink:href="#DejaVuSans-5d" transform="translate(1021.326172 0)"/>
     </g>
    </g>
   </g>
   <g id="line2d_23">
    <path d="M 80.754545 307.789437 
L 81.393837 307.744396 
L 84.235132 307.497581 
L 87.786752 307.185233 
L 98.44161 306.092718 
L 116.199707 304.217653 
L 133.957804 302.384141 
L 151.715901 300.71235 
L 435.845455 266.444934 
" clip-path="url(#p851a560dd5)" style="fill: none; stroke: #1f77b4; stroke-width: 1.5; stroke-linecap: square"/>
    <defs>
     <path id="md48129bcb4" d="M 0 3 
C 0.795609 3 1.55874 2.683901 2.12132 2.12132 
C 2.683901 1.55874 3 0.795609 3 0 
C 3 -0.795609 2.683901 -1.55874 2.12132 -2.12132 
C 1.55874 -2.683901 0.795609 -3 0 -3 
C -0.795609 -3 -1.55874 -2.683901 -2.12132 -2.12132 
C -2.683901 -1.55874 -3 -0.795609 -3 0 
C -3 0.795609 -2.683901 1.55874 -2.12132 2.12132 
C -1.55874 2.683901 -0.795609 3 0 3 
z
" style="stroke: #1f77b4"/>
    </defs>
    <g clip-path="url(#p851a560dd5)">
     <use xlink:href="#md48129bcb4" x="80.754545" y="307.789437" style="fill: #1f77b4; stroke: #1f77b4"/>
     <use xlink:href="#md48129bcb4" x="81.393837" y="307.744396" style="fill: #1f77b4; stroke: #1f77b4"/>
     <use xlink:href="#md48129bcb4" x="84.235132" y="307.497581" style="fill: #1f77b4; stroke: #1f77b4"/>
     <use xlink:href="#md48129bcb4" x="87.786752" y="307.185233" style="fill: #1f77b4; stroke: #1f77b4"/>
     <use xlink:href="#md48129bcb4" x="98.44161" y="306.092718" style="fill: #1f77b4; stroke: #1f77b4"/>
     <use xlink:href="#md48129bcb4" x="116.199707" y="304.217653" style="fill: #1f77b4; stroke: #1f77b4"/>
     <use xlink:href="#md48129bcb4" x="133.957804" y="302.384141" style="fill: #1f77b4; stroke: #1f77b4"/>
     <use xlink:href="#md48129bcb4" x="151.715901" y="300.71235" style="fill: #1f77b4; stroke: #1f77b4"/>
     <use xlink:href="#md48129bcb4" x="435.845455" y="266.444934" style="fill: #1f77b4; stroke: #1f77b4"/>
    </g>
   </g>
   <g id="line2d_24">
    <path d="M 80.754545 307.8 
L 81.393837 307.755163 
L 84.235132 307.304921 
L 87.786752 306.532339 
L 98.44161 305.447295 
L 116.199707 302.471972 
L 133.957804 297.038871 
L 151.715901 295.074894 
L 435.845455 232.206837 
" clip-path="url(#p851a560dd5)" style="fill: none; stroke: #ff7f0e; stroke-width: 1.5; stroke-linecap: square"/>
    <defs>
     <path id="m206e422d2f" d="M 0 3 
C 0.795609 3 1.55874 2.683901 2.12132 2.12132 
C 2.683901 1.55874 3 0.795609 3 0 
C 3 -0.795609 2.683901 -1.55874 2.12132 -2.12132 
C 1.55874 -2.683901 0.795609 -3 0 -3 
C -0.795609 -3 -1.55874 -2.683901 -2.12132 -2.12132 
C -2.683901 -1.55874 -3 -0.795609 -3 0 
C -3 0.795609 -2.683901 1.55874 -2.12132 2.12132 
C -1.55874 2.683901 -0.795609 3 0 3 
z
" style="stroke: #ff7f0e"/>
    </defs>
    <g clip-path="url(#p851a560dd5)">
     <use xlink:href="#m206e422d2f" x="80.754545" y="307.8" style="fill: #ff7f0e; stroke: #ff7f0e"/>
     <use xlink:href="#m206e422d2f" x="81.393837" y="307.755163" style="fill: #ff7f0e; stroke: #ff7f0e"/>
     <use xlink:href="#m206e422d2f" x="84.235132" y="307.304921" style="fill: #ff7f0e; stroke: #ff7f0e"/>
     <use xlink:href="#m206e422d2f" x="87.786752" y="306.532339" style="fill: #ff7f0e; stroke: #ff7f0e"/>
     <use xlink:href="#m206e422d2f" x="98.44161" y="305.447295" style="fill: #ff7f0e; stroke: #ff7f0e"/>
     <use xlink:href="#m206e422d2f" x="116.199707" y="302.471972" style="fill: #ff7f0e; stroke: #ff7f0e"/>
     <use xlink:href="#m206e422d2f" x="133.957804" y="297.038871" style="fill: #ff7f0e; stroke: #ff7f0e"/>
     <use xlink:href="#m206e422d2f" x="151.715901" y="295.074894" style="fill: #ff7f0e; stroke: #ff7f0e"/>
     <use xlink:href="#m206e422d2f" x="435.845455" y="232.206837" style="fill: #ff7f0e; stroke: #ff7f0e"/>
    </g>
   </g>
   <g id="line2d_25">
    <path d="M 80.754545 307.79871 
L 81.393837 307.747753 
L 84.235132 307.584402 
L 87.786752 307.329802 
L 98.44161 306.5302 
L 116.199707 305.131749 
L 133.957804 303.87544 
L 151.715901 302.631568 
L 435.845455 278.362811 
" clip-path="url(#p851a560dd5)" style="fill: none; stroke: #2ca02c; stroke-width: 1.5; stroke-linecap: square"/>
    <defs>
     <path id="m3f992ce6ec" d="M 0 3 
C 0.795609 3 1.55874 2.683901 2.12132 2.12132 
C 2.683901 1.55874 3 0.795609 3 0 
C 3 -0.795609 2.683901 -1.55874 2.12132 -2.12132 
C 1.55874 -2.683901 0.795609 -3 0 -3 
C -0.795609 -3 -1.55874 -2.683901 -2.12132 -2.12132 
C -2.683901 -1.55874 -3 -0.795609 -3 0 
C -3 0.795609 -2.683901 1.55874 -2.12132 2.12132 
C -1.55874 2.683901 -0.795609 3 0 3 
z
" style="stroke: #2ca02c"/>
    </defs>
    <g clip-path="url(#p851a560dd5)">
     <use xlink:href="#m3f992ce6ec" x="80.754545" y="307.79871" style="fill: #2ca02c; stroke: #2ca02c"/>
     <use xlink:href="#m3f992ce6ec" x="81.393837" y="307.747753" style="fill: #2ca02c; stroke: #2ca02c"/>
     <use xlink:href="#m3f992ce6ec" x="84.235132" y="307.584402" style="fill: #2ca02c; stroke: #2ca02c"/>
     <use xlink:href="#m3f992ce6ec" x="87.786752" y="307.329802" style="fill: #2ca02c; stroke: #2ca02c"/>
     <use xlink:href="#m3f992ce6ec" x="98.44161" y="306.5302" style="fill: #2ca02c; stroke: #2ca02c"/>
     <use xlink:href="#m3f992ce6ec" x="116.199707" y="305.131749" style="fill: #2ca02c; stroke: #2ca02c"/>
     <use xlink:href="#m3f992ce6ec" x="133.957804" y="303.87544" style="fill: #2ca02c; stroke: #2ca02c"/>
     <use xlink:href="#m3f992ce6ec" x="151.715901" y="302.631568" style="fill: #2ca02c; stroke: #2ca02c"/>
     <use xlink:href="#m3f992ce6ec" x="435.845455" y="278.362811" style="fill: #2ca02c; stroke: #2ca02c"/>
    </g>
   </g>
   <g id="line2d_26">
    <path d="M 80.754545 307.79967 
L 81.393837 307.773562 
L 84.235132 307.646598 
L 87.786752 307.460066 
L 98.44161 306.925155 
L 116.199707 305.643754 
L 133.957804 305.107775 
L 151.715901 304.279678 
L 435.845455 285.64766 
" clip-path="url(#p851a560dd5)" style="fill: none; stroke: #d62728; stroke-width: 1.5; stroke-linecap: square"/>
    <defs>
     <path id="ma9b19cfc13" d="M 0 3 
C 0.795609 3 1.55874 2.683901 2.12132 2.12132 
C 2.683901 1.55874 3 0.795609 3 0 
C 3 -0.795609 2.683901 -1.55874 2.12132 -2.12132 
C 1.55874 -2.683901 0.795609 -3 0 -3 
C -0.795609 -3 -1.55874 -2.683901 -2.12132 -2.12132 
C -2.683901 -1.55874 -3 -0.795609 -3 0 
C -3 0.795609 -2.683901 1.55874 -2.12132 2.12132 
C -1.55874 2.683901 -0.795609 3 0 3 
z
" style="stroke: #d62728"/>
    </defs>
    <g clip-path="url(#p851a560dd5)">
     <use xlink:href="#ma9b19cfc13" x="80.754545" y="307.79967" style="fill: #d62728; stroke: #d62728"/>
     <use xlink:href="#ma9b19cfc13" x="81.393837" y="307.773562" style="fill: #d62728; stroke: #d62728"/>
     <use xlink:href="#ma9b19cfc13" x="84.235132" y="307.646598" style="fill: #d62728; stroke: #d62728"/>
     <use xlink:href="#ma9b19cfc13" x="87.786752" y="307.460066" style="fill: #d62728; stroke: #d62728"/>
     <use xlink:href="#ma9b19cfc13" x="98.44161" y="306.925155" style="fill: #d62728; stroke: #d62728"/>
     <use xlink:href="#ma9b19cfc13" x="116.199707" y="305.643754" style="fill: #d62728; stroke: #d62728"/>
     <use xlink:href="#ma9b19cfc13" x="133.957804" y="305.107775" style="fill: #d62728; stroke: #d62728"/>
     <use xlink:href="#ma9b19cfc13" x="151.715901" y="304.279678" style="fill: #d62728; stroke: #d62728"/>
     <use xlink:href="#ma9b19cfc13" x="435.845455" y="285.64766" style="fill: #d62728; stroke: #d62728"/>
    </g>
   </g>
   <g id="line2d_27">
    <path d="M 80.754545 307.784186 
L 81.393837 307.700137 
L 84.235132 307.277901 
L 87.786752 306.745791 
L 98.44161 305.108537 
L 116.199707 302.180402 
L 133.957804 299.611685 
L 151.715901 297.048752 
L 435.845455 248.524395 
" clip-path="url(#p851a560dd5)" style="fill: none; stroke: #9467bd; stroke-width: 1.5; stroke-linecap: square"/>
    <defs>
     <path id="m8f8348d4fa" d="M 0 3 
C 0.795609 3 1.55874 2.683901 2.12132 2.12132 
C 2.683901 1.55874 3 0.795609 3 0 
C 3 -0.795609 2.683901 -1.55874 2.12132 -2.12132 
C 1.55874 -2.683901 0.795609 -3 0 -3 
C -0.795609 -3 -1.55874 -2.683901 -2.12132 -2.12132 
C -2.683901 -1.55874 -3 -0.795609 -3 0 
C -3 0.795609 -2.683901 1.55874 -2.12132 2.12132 
C -1.55874 2.683901 -0.795609 3 0 3 
z
" style="stroke: #9467bd"/>
    </defs>
    <g clip-path="url(#p851a560dd5)">
     <use xlink:href="#m8f8348d4fa" x="80.754545" y="307.784186" style="fill: #9467bd; stroke: #9467bd"/>
     <use xlink:href="#m8f8348d4fa" x="81.393837" y="307.700137" style="fill: #9467bd; stroke: #9467bd"/>
     <use xlink:href="#m8f8348d4fa" x="84.235132" y="307.277901" style="fill: #9467bd; stroke: #9467bd"/>
     <use xlink:href="#m8f8348d4fa" x="87.786752" y="306.745791" style="fill: #9467bd; stroke: #9467bd"/>
     <use xlink:href="#m8f8348d4fa" x="98.44161" y="305.108537" style="fill: #9467bd; stroke: #9467bd"/>
     <use xlink:href="#m8f8348d4fa" x="116.199707" y="302.180402" style="fill: #9467bd; stroke: #9467bd"/>
     <use xlink:href="#m8f8348d4fa" x="133.957804" y="299.611685" style="fill: #9467bd; stroke: #9467bd"/>
     <use xlink:href="#m8f8348d4fa" x="151.715901" y="297.048752" style="fill: #9467bd; stroke: #9467bd"/>
     <use xlink:href="#m8f8348d4fa" x="435.845455" y="248.524395" style="fill: #9467bd; stroke: #9467bd"/>
    </g>
   </g>
   <g id="line2d_28">
    <path d="M 80.754545 307.798869 
L 81.393837 307.761688 
L 84.235132 307.61137 
L 87.786752 307.324233 
L 98.44161 306.747145 
L 116.199707 305.581975 
L 133.957804 304.500664 
L 151.715901 303.480137 
L 435.845455 281.961275 
" clip-path="url(#p851a560dd5)" style="fill: none; stroke: #8c564b; stroke-width: 1.5; stroke-linecap: square"/>
    <defs>
     <path id="m341b46b7d3" d="M 0 3 
C 0.795609 3 1.55874 2.683901 2.12132 2.12132 
C 2.683901 1.55874 3 0.795609 3 0 
C 3 -0.795609 2.683901 -1.55874 2.12132 -2.12132 
C 1.55874 -2.683901 0.795609 -3 0 -3 
C -0.795609 -3 -1.55874 -2.683901 -2.12132 -2.12132 
C -2.683901 -1.55874 -3 -0.795609 -3 0 
C -3 0.795609 -2.683901 1.55874 -2.12132 2.12132 
C -1.55874 2.683901 -0.795609 3 0 3 
z
" style="stroke: #8c564b"/>
    </defs>
    <g clip-path="url(#p851a560dd5)">
     <use xlink:href="#m341b46b7d3" x="80.754545" y="307.798869" style="fill: #8c564b; stroke: #8c564b"/>
     <use xlink:href="#m341b46b7d3" x="81.393837" y="307.761688" style="fill: #8c564b; stroke: #8c564b"/>
     <use xlink:href="#m341b46b7d3" x="84.235132" y="307.61137" style="fill: #8c564b; stroke: #8c564b"/>
     <use xlink:href="#m341b46b7d3" x="87.786752" y="307.324233" style="fill: #8c564b; stroke: #8c564b"/>
     <use xlink:href="#m341b46b7d3" x="98.44161" y="306.747145" style="fill: #8c564b; stroke: #8c564b"/>
     <use xlink:href="#m341b46b7d3" x="116.199707" y="305.581975" style="fill: #8c564b; stroke: #8c564b"/>
     <use xlink:href="#m341b46b7d3" x="133.957804" y="304.500664" style="fill: #8c564b; stroke: #8c564b"/>
     <use xlink:href="#m341b46b7d3" x="151.715901" y="303.480137" style="fill: #8c564b; stroke: #8c564b"/>
     <use xlink:href="#m341b46b7d3" x="435.845455" y="281.961275" style="fill: #8c564b; stroke: #8c564b"/>
    </g>
   </g>
   <g id="line2d_29">
    <path d="M 80.754545 307.751326 
L 81.393837 307.458098 
L 84.235132 305.502049 
L 87.786752 303.089909 
L 98.44161 296.570329 
L 116.199707 284.661158 
L 133.957804 272.810018 
L 151.715901 261.936237 
L 435.845455 55.8 
" clip-path="url(#p851a560dd5)" style="fill: none; stroke: #e377c2; stroke-width: 1.5; stroke-linecap: square"/>
    <defs>
     <path id="m994e7365c7" d="M 0 3 
C 0.795609 3 1.55874 2.683901 2.12132 2.12132 
C 2.683901 1.55874 3 0.795609 3 0 
C 3 -0.795609 2.683901 -1.55874 2.12132 -2.12132 
C 1.55874 -2.683901 0.795609 -3 0 -3 
C -0.795609 -3 -1.55874 -2.683901 -2.12132 -2.12132 
C -2.683901 -1.55874 -3 -0.795609 -3 0 
C -3 0.795609 -2.683901 1.55874 -2.12132 2.12132 
C -1.55874 2.683901 -0.795609 3 0 3 
z
" style="stroke: #e377c2"/>
    </defs>
    <g clip-path="url(#p851a560dd5)">
     <use xlink:href="#m994e7365c7" x="80.754545" y="307.751326" style="fill: #e377c2; stroke: #e377c2"/>
     <use xlink:href="#m994e7365c7" x="81.393837" y="307.458098" style="fill: #e377c2; stroke: #e377c2"/>
     <use xlink:href="#m994e7365c7" x="84.235132" y="305.502049" style="fill: #e377c2; stroke: #e377c2"/>
     <use xlink:href="#m994e7365c7" x="87.786752" y="303.089909" style="fill: #e377c2; stroke: #e377c2"/>
     <use xlink:href="#m994e7365c7" x="98.44161" y="296.570329" style="fill: #e377c2; stroke: #e377c2"/>
     <use xlink:href="#m994e7365c7" x="116.199707" y="284.661158" style="fill: #e377c2; stroke: #e377c2"/>
     <use xlink:href="#m994e7365c7" x="133.957804" y="272.810018" style="fill: #e377c2; stroke: #e377c2"/>
     <use xlink:href="#m994e7365c7" x="151.715901" y="261.936237" style="fill: #e377c2; stroke: #e377c2"/>
     <use xlink:href="#m994e7365c7" x="435.845455" y="55.8" style="fill: #e377c2; stroke: #e377c2"/>
    </g>
   </g>
   <g id="patch_3">
    <path d="M 63 320.4 
L 63 43.2 
" style="fill: none; stroke: #000000; stroke-width: 0.8; stroke-linejoin: miter; stroke-linecap: square"/>
   </g>
   <g id="patch_4">
    <path d="M 453.6 320.4 
L 453.6 43.2 
" style="fill: none; stroke: #000000; stroke-width: 0.8; stroke-linejoin: miter; stroke-linecap: square"/>
   </g>
   <g id="patch_5">
    <path d="M 63 320.4 
L 453.6 320.4 
" style="fill: none; stroke: #000000; stroke-width: 0.8; stroke-linejoin: miter; stroke-linecap: square"/>
   </g>
   <g id="patch_6">
    <path d="M 63 43.2 
L 453.6 43.2 
" style="fill: none; stroke: #000000; stroke-width: 0.8; stroke-linejoin: miter; stroke-linecap: square"/>
   </g>
   <g id="text_14">
    <!-- Czasy wykonania dla generatora generate_uniform_points -->
    <g transform="translate(83.638125 37.2) scale(0.12 -0.12)">
     <defs>
      <path id="DejaVuSans-64" d="M 2906 2969 
L 2906 4863 
L 3481 4863 
L 3481 0 
L 2906 0 
L 2906 525 
Q 2725 213 2448 61 
Q 2172 -91 1784 -91 
Q 1150 -91 751 415 
Q 353 922 353 1747 
Q 353 2572 751 3078 
Q 1150 3584 1784 3584 
Q 2172 3584 2448 3432 
Q 2725 3281 2906 2969 
z
M 947 1747 
Q 947 1113 1208 752 
Q 1469 391 1925 391 
Q 2381 391 2643 752 
Q 2906 1113 2906 1747 
Q 2906 2381 2643 2742 
Q 2381 3103 1925 3103 
Q 1469 3103 1208 2742 
Q 947 2381 947 1747 
z
" transform="scale(0.015625)"/>
      <path id="DejaVuSans-6c" d="M 603 4863 
L 1178 4863 
L 1178 0 
L 603 0 
L 603 4863 
z
" transform="scale(0.015625)"/>
      <path id="DejaVuSans-67" d="M 2906 1791 
Q 2906 2416 2648 2759 
Q 2391 3103 1925 3103 
Q 1463 3103 1205 2759 
Q 947 2416 947 1791 
Q 947 1169 1205 825 
Q 1463 481 1925 481 
Q 2391 481 2648 825 
Q 2906 1169 2906 1791 
z
M 3481 434 
Q 3481 -459 3084 -895 
Q 2688 -1331 1869 -1331 
Q 1566 -1331 1297 -1286 
Q 1028 -1241 775 -1147 
L 775 -588 
Q 1028 -725 1275 -790 
Q 1522 -856 1778 -856 
Q 2344 -856 2625 -561 
Q 2906 -266 2906 331 
L 2906 616 
Q 2728 306 2450 153 
Q 2172 0 1784 0 
Q 1141 0 747 490 
Q 353 981 353 1791 
Q 353 2603 747 3093 
Q 1141 3584 1784 3584 
Q 2172 3584 2450 3431 
Q 2728 3278 2906 2969 
L 2906 3500 
L 3481 3500 
L 3481 434 
z
" transform="scale(0.015625)"/>
      <path id="DejaVuSans-65" d="M 3597 1894 
L 3597 1613 
L 953 1613 
Q 991 1019 1311 708 
Q 1631 397 2203 397 
Q 2534 397 2845 478 
Q 3156 559 3463 722 
L 3463 178 
Q 3153 47 2828 -22 
Q 2503 -91 2169 -91 
Q 1331 -91 842 396 
Q 353 884 353 1716 
Q 353 2575 817 3079 
Q 1281 3584 2069 3584 
Q 2775 3584 3186 3129 
Q 3597 2675 3597 1894 
z
M 3022 2063 
Q 3016 2534 2758 2815 
Q 2500 3097 2075 3097 
Q 1594 3097 1305 2825 
Q 1016 2553 972 2059 
L 3022 2063 
z
" transform="scale(0.015625)"/>
      <path id="DejaVuSans-72" d="M 2631 2963 
Q 2534 3019 2420 3045 
Q 2306 3072 2169 3072 
Q 1681 3072 1420 2755 
Q 1159 2438 1159 1844 
L 1159 0 
L 581 0 
L 581 3500 
L 1159 3500 
L 1159 2956 
Q 1341 3275 1631 3429 
Q 1922 3584 2338 3584 
Q 2397 3584 2469 3576 
Q 2541 3569 2628 3553 
L 2631 2963 
z
" transform="scale(0.015625)"/>
      <path id="DejaVuSans-5f" d="M 3263 -1063 
L 3263 -1509 
L -63 -1509 
L -63 -1063 
L 3263 -1063 
z
" transform="scale(0.015625)"/>
      <path id="DejaVuSans-66" d="M 2375 4863 
L 2375 4384 
L 1825 4384 
Q 1516 4384 1395 4259 
Q 1275 4134 1275 3809 
L 1275 3500 
L 2222 3500 
L 2222 3053 
L 1275 3053 
L 1275 0 
L 697 0 
L 697 3053 
L 147 3053 
L 147 3500 
L 697 3500 
L 697 3744 
Q 697 4328 969 4595 
Q 1241 4863 1831 4863 
L 2375 4863 
z
" transform="scale(0.015625)"/>
     </defs>
     <use xlink:href="#DejaVuSans-43"/>
     <use xlink:href="#DejaVuSans-7a" transform="translate(69.824219 0)"/>
     <use xlink:href="#DejaVuSans-61" transform="translate(122.314453 0)"/>
     <use xlink:href="#DejaVuSans-73" transform="translate(183.59375 0)"/>
     <use xlink:href="#DejaVuSans-79" transform="translate(235.693359 0)"/>
     <use xlink:href="#DejaVuSans-20" transform="translate(294.873047 0)"/>
     <use xlink:href="#DejaVuSans-77" transform="translate(326.660156 0)"/>
     <use xlink:href="#DejaVuSans-79" transform="translate(408.447266 0)"/>
     <use xlink:href="#DejaVuSans-6b" transform="translate(467.626953 0)"/>
     <use xlink:href="#DejaVuSans-6f" transform="translate(521.912109 0)"/>
     <use xlink:href="#DejaVuSans-6e" transform="translate(583.09375 0)"/>
     <use xlink:href="#DejaVuSans-61" transform="translate(646.472656 0)"/>
     <use xlink:href="#DejaVuSans-6e" transform="translate(707.751953 0)"/>
     <use xlink:href="#DejaVuSans-69" transform="translate(771.130859 0)"/>
     <use xlink:href="#DejaVuSans-61" transform="translate(798.914062 0)"/>
     <use xlink:href="#DejaVuSans-20" transform="translate(860.193359 0)"/>
     <use xlink:href="#DejaVuSans-64" transform="translate(891.980469 0)"/>
     <use xlink:href="#DejaVuSans-6c" transform="translate(955.457031 0)"/>
     <use xlink:href="#DejaVuSans-61" transform="translate(983.240234 0)"/>
     <use xlink:href="#DejaVuSans-20" transform="translate(1044.519531 0)"/>
     <use xlink:href="#DejaVuSans-67" transform="translate(1076.306641 0)"/>
     <use xlink:href="#DejaVuSans-65" transform="translate(1139.783203 0)"/>
     <use xlink:href="#DejaVuSans-6e" transform="translate(1201.306641 0)"/>
     <use xlink:href="#DejaVuSans-65" transform="translate(1264.685547 0)"/>
     <use xlink:href="#DejaVuSans-72" transform="translate(1326.208984 0)"/>
     <use xlink:href="#DejaVuSans-61" transform="translate(1367.322266 0)"/>
     <use xlink:href="#DejaVuSans-74" transform="translate(1428.601562 0)"/>
     <use xlink:href="#DejaVuSans-6f" transform="translate(1467.810547 0)"/>
     <use xlink:href="#DejaVuSans-72" transform="translate(1528.992188 0)"/>
     <use xlink:href="#DejaVuSans-61" transform="translate(1570.105469 0)"/>
     <use xlink:href="#DejaVuSans-20" transform="translate(1631.384766 0)"/>
     <use xlink:href="#DejaVuSans-67" transform="translate(1663.171875 0)"/>
     <use xlink:href="#DejaVuSans-65" transform="translate(1726.648438 0)"/>
     <use xlink:href="#DejaVuSans-6e" transform="translate(1788.171875 0)"/>
     <use xlink:href="#DejaVuSans-65" transform="translate(1851.550781 0)"/>
     <use xlink:href="#DejaVuSans-72" transform="translate(1913.074219 0)"/>
     <use xlink:href="#DejaVuSans-61" transform="translate(1954.1875 0)"/>
     <use xlink:href="#DejaVuSans-74" transform="translate(2015.466797 0)"/>
     <use xlink:href="#DejaVuSans-65" transform="translate(2054.675781 0)"/>
     <use xlink:href="#DejaVuSans-5f" transform="translate(2116.199219 0)"/>
     <use xlink:href="#DejaVuSans-75" transform="translate(2166.199219 0)"/>
     <use xlink:href="#DejaVuSans-6e" transform="translate(2229.578125 0)"/>
     <use xlink:href="#DejaVuSans-69" transform="translate(2292.957031 0)"/>
     <use xlink:href="#DejaVuSans-66" transform="translate(2320.740234 0)"/>
     <use xlink:href="#DejaVuSans-6f" transform="translate(2355.945312 0)"/>
     <use xlink:href="#DejaVuSans-72" transform="translate(2417.126953 0)"/>
     <use xlink:href="#DejaVuSans-6d" transform="translate(2456.490234 0)"/>
     <use xlink:href="#DejaVuSans-5f" transform="translate(2553.902344 0)"/>
     <use xlink:href="#DejaVuSans-70" transform="translate(2603.902344 0)"/>
     <use xlink:href="#DejaVuSans-6f" transform="translate(2667.378906 0)"/>
     <use xlink:href="#DejaVuSans-69" transform="translate(2728.560547 0)"/>
     <use xlink:href="#DejaVuSans-6e" transform="translate(2756.34375 0)"/>
     <use xlink:href="#DejaVuSans-74" transform="translate(2819.722656 0)"/>
     <use xlink:href="#DejaVuSans-73" transform="translate(2858.931641 0)"/>
    </g>
   </g>
   <g id="legend_1">
    <g id="patch_7">
     <path d="M 70 154.225 
L 202.04375 154.225 
Q 204.04375 154.225 204.04375 152.225 
L 204.04375 50.2 
Q 204.04375 48.2 202.04375 48.2 
L 70 48.2 
Q 68 48.2 68 50.2 
L 68 152.225 
Q 68 154.225 70 154.225 
z
" style="fill: #ffffff; opacity: 0.8; stroke: #cccccc; stroke-linejoin: miter"/>
    </g>
    <g id="line2d_30">
     <path d="M 72 56.298437 
L 82 56.298437 
L 92 56.298437 
" style="fill: none; stroke: #1f77b4; stroke-width: 1.5; stroke-linecap: square"/>
     <g>
      <use xlink:href="#md48129bcb4" x="82" y="56.298437" style="fill: #1f77b4; stroke: #1f77b4"/>
     </g>
    </g>
    <g id="text_15">
     <!-- graham -->
     <g transform="translate(100 59.798437) scale(0.1 -0.1)">
      <defs>
       <path id="DejaVuSans-68" d="M 3513 2113 
L 3513 0 
L 2938 0 
L 2938 2094 
Q 2938 2591 2744 2837 
Q 2550 3084 2163 3084 
Q 1697 3084 1428 2787 
Q 1159 2491 1159 1978 
L 1159 0 
L 581 0 
L 581 4863 
L 1159 4863 
L 1159 2956 
Q 1366 3272 1645 3428 
Q 1925 3584 2291 3584 
Q 2894 3584 3203 3211 
Q 3513 2838 3513 2113 
z
" transform="scale(0.015625)"/>
      </defs>
      <use xlink:href="#DejaVuSans-67"/>
      <use xlink:href="#DejaVuSans-72" transform="translate(63.476562 0)"/>
      <use xlink:href="#DejaVuSans-61" transform="translate(104.589844 0)"/>
      <use xlink:href="#DejaVuSans-68" transform="translate(165.869141 0)"/>
      <use xlink:href="#DejaVuSans-61" transform="translate(229.248047 0)"/>
      <use xlink:href="#DejaVuSans-6d" transform="translate(290.527344 0)"/>
     </g>
    </g>
    <g id="line2d_31">
     <path d="M 72 70.976562 
L 82 70.976562 
L 92 70.976562 
" style="fill: none; stroke: #ff7f0e; stroke-width: 1.5; stroke-linecap: square"/>
     <g>
      <use xlink:href="#m206e422d2f" x="82" y="70.976562" style="fill: #ff7f0e; stroke: #ff7f0e"/>
     </g>
    </g>
    <g id="text_16">
     <!-- jarvis -->
     <g transform="translate(100 74.476562) scale(0.1 -0.1)">
      <defs>
       <path id="DejaVuSans-6a" d="M 603 3500 
L 1178 3500 
L 1178 -63 
Q 1178 -731 923 -1031 
Q 669 -1331 103 -1331 
L -116 -1331 
L -116 -844 
L 38 -844 
Q 366 -844 484 -692 
Q 603 -541 603 -63 
L 603 3500 
z
M 603 4863 
L 1178 4863 
L 1178 4134 
L 603 4134 
L 603 4863 
z
" transform="scale(0.015625)"/>
       <path id="DejaVuSans-76" d="M 191 3500 
L 800 3500 
L 1894 563 
L 2988 3500 
L 3597 3500 
L 2284 0 
L 1503 0 
L 191 3500 
z
" transform="scale(0.015625)"/>
      </defs>
      <use xlink:href="#DejaVuSans-6a"/>
      <use xlink:href="#DejaVuSans-61" transform="translate(27.783203 0)"/>
      <use xlink:href="#DejaVuSans-72" transform="translate(89.0625 0)"/>
      <use xlink:href="#DejaVuSans-76" transform="translate(130.175781 0)"/>
      <use xlink:href="#DejaVuSans-69" transform="translate(189.355469 0)"/>
      <use xlink:href="#DejaVuSans-73" transform="translate(217.138672 0)"/>
     </g>
    </g>
    <g id="line2d_32">
     <path d="M 72 85.654687 
L 82 85.654687 
L 92 85.654687 
" style="fill: none; stroke: #2ca02c; stroke-width: 1.5; stroke-linecap: square"/>
     <g>
      <use xlink:href="#m3f992ce6ec" x="82" y="85.654687" style="fill: #2ca02c; stroke: #2ca02c"/>
     </g>
    </g>
    <g id="text_17">
     <!-- incremental -->
     <g transform="translate(100 89.154687) scale(0.1 -0.1)">
      <use xlink:href="#DejaVuSans-69"/>
      <use xlink:href="#DejaVuSans-6e" transform="translate(27.783203 0)"/>
      <use xlink:href="#DejaVuSans-63" transform="translate(91.162109 0)"/>
      <use xlink:href="#DejaVuSans-72" transform="translate(146.142578 0)"/>
      <use xlink:href="#DejaVuSans-65" transform="translate(185.005859 0)"/>
      <use xlink:href="#DejaVuSans-6d" transform="translate(246.529297 0)"/>
      <use xlink:href="#DejaVuSans-65" transform="translate(343.941406 0)"/>
      <use xlink:href="#DejaVuSans-6e" transform="translate(405.464844 0)"/>
      <use xlink:href="#DejaVuSans-74" transform="translate(468.84375 0)"/>
      <use xlink:href="#DejaVuSans-61" transform="translate(508.052734 0)"/>
      <use xlink:href="#DejaVuSans-6c" transform="translate(569.332031 0)"/>
     </g>
    </g>
    <g id="line2d_33">
     <path d="M 72 100.332812 
L 82 100.332812 
L 92 100.332812 
" style="fill: none; stroke: #d62728; stroke-width: 1.5; stroke-linecap: square"/>
     <g>
      <use xlink:href="#ma9b19cfc13" x="82" y="100.332812" style="fill: #d62728; stroke: #d62728"/>
     </g>
    </g>
    <g id="text_18">
     <!-- monochain -->
     <g transform="translate(100 103.832812) scale(0.1 -0.1)">
      <use xlink:href="#DejaVuSans-6d"/>
      <use xlink:href="#DejaVuSans-6f" transform="translate(97.412109 0)"/>
      <use xlink:href="#DejaVuSans-6e" transform="translate(158.59375 0)"/>
      <use xlink:href="#DejaVuSans-6f" transform="translate(221.972656 0)"/>
      <use xlink:href="#DejaVuSans-63" transform="translate(283.154297 0)"/>
      <use xlink:href="#DejaVuSans-68" transform="translate(338.134766 0)"/>
      <use xlink:href="#DejaVuSans-61" transform="translate(401.513672 0)"/>
      <use xlink:href="#DejaVuSans-69" transform="translate(462.792969 0)"/>
      <use xlink:href="#DejaVuSans-6e" transform="translate(490.576172 0)"/>
     </g>
    </g>
    <g id="line2d_34">
     <path d="M 72 115.010937 
L 82 115.010937 
L 92 115.010937 
" style="fill: none; stroke: #9467bd; stroke-width: 1.5; stroke-linecap: square"/>
     <g>
      <use xlink:href="#m8f8348d4fa" x="82" y="115.010937" style="fill: #9467bd; stroke: #9467bd"/>
     </g>
    </g>
    <g id="text_19">
     <!-- divide_and_conquer -->
     <g transform="translate(100 118.510937) scale(0.1 -0.1)">
      <defs>
       <path id="DejaVuSans-71" d="M 947 1747 
Q 947 1113 1208 752 
Q 1469 391 1925 391 
Q 2381 391 2643 752 
Q 2906 1113 2906 1747 
Q 2906 2381 2643 2742 
Q 2381 3103 1925 3103 
Q 1469 3103 1208 2742 
Q 947 2381 947 1747 
z
M 2906 525 
Q 2725 213 2448 61 
Q 2172 -91 1784 -91 
Q 1150 -91 751 415 
Q 353 922 353 1747 
Q 353 2572 751 3078 
Q 1150 3584 1784 3584 
Q 2172 3584 2448 3432 
Q 2725 3281 2906 2969 
L 2906 3500 
L 3481 3500 
L 3481 -1331 
L 2906 -1331 
L 2906 525 
z
" transform="scale(0.015625)"/>
      </defs>
      <use xlink:href="#DejaVuSans-64"/>
      <use xlink:href="#DejaVuSans-69" transform="translate(63.476562 0)"/>
      <use xlink:href="#DejaVuSans-76" transform="translate(91.259766 0)"/>
      <use xlink:href="#DejaVuSans-69" transform="translate(150.439453 0)"/>
      <use xlink:href="#DejaVuSans-64" transform="translate(178.222656 0)"/>
      <use xlink:href="#DejaVuSans-65" transform="translate(241.699219 0)"/>
      <use xlink:href="#DejaVuSans-5f" transform="translate(303.222656 0)"/>
      <use xlink:href="#DejaVuSans-61" transform="translate(353.222656 0)"/>
      <use xlink:href="#DejaVuSans-6e" transform="translate(414.501953 0)"/>
      <use xlink:href="#DejaVuSans-64" transform="translate(477.880859 0)"/>
      <use xlink:href="#DejaVuSans-5f" transform="translate(541.357422 0)"/>
      <use xlink:href="#DejaVuSans-63" transform="translate(591.357422 0)"/>
      <use xlink:href="#DejaVuSans-6f" transform="translate(646.337891 0)"/>
      <use xlink:href="#DejaVuSans-6e" transform="translate(707.519531 0)"/>
      <use xlink:href="#DejaVuSans-71" transform="translate(770.898438 0)"/>
      <use xlink:href="#DejaVuSans-75" transform="translate(834.375 0)"/>
      <use xlink:href="#DejaVuSans-65" transform="translate(897.753906 0)"/>
      <use xlink:href="#DejaVuSans-72" transform="translate(959.277344 0)"/>
     </g>
    </g>
    <g id="line2d_35">
     <path d="M 72 129.967187 
L 82 129.967187 
L 92 129.967187 
" style="fill: none; stroke: #8c564b; stroke-width: 1.5; stroke-linecap: square"/>
     <g>
      <use xlink:href="#m341b46b7d3" x="82" y="129.967187" style="fill: #8c564b; stroke: #8c564b"/>
     </g>
    </g>
    <g id="text_20">
     <!-- quickhull -->
     <g transform="translate(100 133.467187) scale(0.1 -0.1)">
      <use xlink:href="#DejaVuSans-71"/>
      <use xlink:href="#DejaVuSans-75" transform="translate(63.476562 0)"/>
      <use xlink:href="#DejaVuSans-69" transform="translate(126.855469 0)"/>
      <use xlink:href="#DejaVuSans-63" transform="translate(154.638672 0)"/>
      <use xlink:href="#DejaVuSans-6b" transform="translate(209.619141 0)"/>
      <use xlink:href="#DejaVuSans-68" transform="translate(267.529297 0)"/>
      <use xlink:href="#DejaVuSans-75" transform="translate(330.908203 0)"/>
      <use xlink:href="#DejaVuSans-6c" transform="translate(394.287109 0)"/>
      <use xlink:href="#DejaVuSans-6c" transform="translate(422.070312 0)"/>
     </g>
    </g>
    <g id="line2d_36">
     <path d="M 72 144.645312 
L 82 144.645312 
L 92 144.645312 
" style="fill: none; stroke: #e377c2; stroke-width: 1.5; stroke-linecap: square"/>
     <g>
      <use xlink:href="#m994e7365c7" x="82" y="144.645312" style="fill: #e377c2; stroke: #e377c2"/>
     </g>
    </g>
    <g id="text_21">
     <!-- chan -->
     <g transform="translate(100 148.145312) scale(0.1 -0.1)">
      <use xlink:href="#DejaVuSans-63"/>
      <use xlink:href="#DejaVuSans-68" transform="translate(54.980469 0)"/>
      <use xlink:href="#DejaVuSans-61" transform="translate(118.359375 0)"/>
      <use xlink:href="#DejaVuSans-6e" transform="translate(179.638672 0)"/>
     </g>
    </g>
   </g>
  </g>
 </g>
 <defs>
  <clipPath id="p851a560dd5">
   <rect x="63" y="43.2" width="390.6" height="277.2"/>
  </clipPath>
 </defs>
</svg>
